<svg xmlns="http://www.w3.org/2000/svg" viewBox="0 0 100 120">
    <path fill="#026bc6" d="M5,10 Q50,0 95,10 L95,80 Q50,120 5,80 Z"/>
    <path fill="#0050aa" d="M50,4 L95,10 L95,80 Q50,120 50,120 Z"/>
    <circle cx="50" cy="53" r="32" fill="#da2127"/>
    <path fill="#fdd600" d="M22,50 C22,25 78,25 78,50 C78,65 65,75 50,75 C35,75 22,65 22,50" opacity="0.4"/>
    <polygon fill="#fdd600" points="50,32 55,44 68,44 58,52 62,65 50,58 38,65 42,52 32,44 45,44"/>
    <text x="50" y="26" fill="#fdd600" font-size="10" font-family="Arial" font-weight="bold" text-anchor="middle" letter-spacing="1">TƯ PHÁP</text>
    <rect x="25" y="72" width="50" height="12" fill="#da2127" stroke="#fdd600" stroke-width="1"/>
    <text x="50" y="81" fill="#fdd600" font-size="8" font-family="Arial" font-weight="bold" text-anchor="middle" letter-spacing="0.5">VIỆT NAM</text>
    <rect x="47" y="15" width="6" height="85" fill="#fdd600"/>
    <polygon fill="#da2127" points="50,10 53,20 47,20"/>
    <rect x="35" y="65" width="30" height="4" fill="#fdd600"/>
</svg>
