<svg width="296" height="41" viewBox="0 0 296 41" fill="none" xmlns="http://www.w3.org/2000/svg">
<path fill-rule="evenodd" clip-rule="evenodd" d="M33.724 0.5V9.94H65.384V0.5L33.724 0.5ZM0.507812 0.501523H11.3478V30.7295H29.345V40.1695H0.764974V40.1615H0.507812V0.501523ZM33.7305 25.049V15.609H65.3905V25.049H33.7305ZM33.737 30.7214V40.1614H65.397V30.7214H33.737ZM80.5096 40.1626H68.6296L96.7296 0.942603H108.75L80.5096 40.1626ZM132.547 28.0403C131.527 31.1603 128.847 33.4203 125.647 33.4203C121.587 33.4203 118.307 29.8003 118.307 25.3403C118.307 20.8803 121.587 17.2603 125.647 17.2603C128.707 17.2603 131.327 19.3203 132.427 22.2403L140.347 18.4203C137.707 13.2003 131.987 9.5803 125.327 9.5803C116.167 9.5803 108.727 16.4203 108.727 24.8803C108.727 33.3403 116.147 40.1803 125.327 40.1803C131.147 40.1803 136.267 37.4003 139.227 33.2203L132.547 28.0403ZM149.846 26.8641H174.246L174.286 25.4641C174.286 20.6041 172.786 16.6841 169.806 13.7241C166.806 10.7641 162.926 9.28407 158.166 9.28407C153.666 9.28407 149.946 10.7641 146.966 13.7241C143.986 16.6841 142.506 20.4041 142.506 24.8841C142.506 29.2641 144.006 32.9041 146.986 35.8241C149.966 38.7241 153.846 40.1841 158.586 40.1841C161.626 40.1841 164.286 39.6641 166.506 38.6041C168.746 37.5441 170.646 35.9241 172.246 33.7241L165.846 30.8041C163.806 32.7441 161.366 33.7041 158.526 33.7041C156.146 33.7041 154.186 33.0841 152.666 31.8441C151.146 30.6241 150.206 28.9441 149.846 26.8641ZM166.66 21.0241C166.158 19.3932 165.18 18.0599 163.706 17.0441C162.206 16.0241 160.506 15.5041 158.546 15.5041C156.426 15.5041 154.566 16.0841 152.966 17.2241C151.966 17.9441 151.026 19.2241 150.186 21.0241H166.66ZM181.009 10.8009H189.929V13.8009C191.949 12.4009 193.769 11.4209 195.429 10.8609C197.089 10.3009 198.749 10.0409 200.469 10.0409C203.989 10.0409 206.969 11.0609 209.429 13.0809C211.489 14.8009 212.529 17.3609 212.529 20.7409V40.1409H203.709V27.3009C203.709 23.8009 203.529 21.4609 203.129 20.3209C202.749 19.1609 202.089 18.3009 201.149 17.7009C200.209 17.1009 199.049 16.8009 197.649 16.8009C195.849 16.8009 194.309 17.3009 193.009 18.3009C191.709 19.3009 190.829 20.6809 190.329 22.4409C190.069 23.3609 189.929 25.3409 189.929 28.4009V40.1809H181.009V10.8009ZM235.97 39.9618C237.23 39.8218 238.31 39.6418 239.23 39.4218H239.25V33.8818C238.43 34.0618 237.55 34.2218 236.63 34.3418C235.69 34.4618 234.77 34.5218 233.83 34.5218C231.79 34.5218 230.43 34.0818 229.75 33.2218C229.37 32.7018 229.17 31.9218 229.17 30.8618V17.5218H238.75V12.0018H229.17V4.32184H221.05V12.0018H214.85V17.5218H221.05V31.7418C221.05 33.4618 221.31 34.8218 221.83 35.8218C222.57 37.2218 223.83 38.3018 225.59 39.0418C227.37 39.7818 229.65 40.1618 232.43 40.1618C233.53 40.1618 234.71 40.1018 235.97 39.9618ZM244.511 20.1434C244.511 15.6834 244.431 12.7434 244.271 10.1434H252.371L252.711 15.7634H252.951C254.511 11.3234 258.211 9.46344 261.151 9.46344C262.031 9.46344 262.471 9.48344 263.171 9.64344V18.5034C262.431 18.3434 261.671 18.2434 260.611 18.2434C257.151 18.2434 254.771 20.0834 254.151 23.0434C254.031 23.6434 253.971 24.3834 253.971 25.1434V40.5034H244.511V20.1434ZM286.427 37.1429L286.987 40.1629H295.487C295.167 38.4429 295.007 35.7029 295.007 32.8029V22.2229C295.007 15.1029 291.807 9.12294 281.707 9.12294C276.147 9.12294 272.027 10.6429 269.907 11.8429L271.647 17.8829C273.667 16.6829 276.907 15.6229 280.007 15.6229C284.707 15.6029 285.567 17.9029 285.567 19.5229V19.9229C274.827 19.9029 267.747 23.6629 267.747 31.5629C267.747 36.4029 271.387 40.8429 277.567 40.8429C281.147 40.8429 284.247 39.5629 286.227 37.1429H286.427ZM277.047 30.5829C277.047 26.9629 280.887 25.7829 285.847 25.8029V29.1229C285.847 29.6629 285.807 30.2629 285.667 30.7429C285.047 32.6829 283.087 34.2229 280.787 34.2229C278.647 34.2229 277.047 33.0229 277.047 30.5829ZM83.0263 4.5812L80.3063 0.501197H68.6263L76.9663 12.4412L83.0263 4.5812ZM96.5849 39.7615L93.8249 35.5615L99.9449 27.6415L108.305 39.7615H96.5849Z" fill="#F8F8F8"/>
</svg>
