<?xml version="1.0" encoding="utf-8"?>
<!-- Generator: Adobe Illustrator 23.0.0, SVG Export Plug-In . SVG Version: 6.00 Build 0)  -->
<svg version="1.1" id="Layer_1" xmlns="http://www.w3.org/2000/svg" xmlns:xlink="http://www.w3.org/1999/xlink" x="0px" y="0px"
	 viewBox="0 0 956.7 327" style="enable-background:new 0 0 956.7 327;" xml:space="preserve">
<style type="text/css">
	.st0{enable-background:new    ;}
	.st1{fill:#FFFFFF;}
	.st2{fill:#58595B;}
	.st3{fill:#ED1C24;}
	.st4{fill:url(#SVGID_1_);}
	.st5{fill:#59595C;}
</style>
<title>Artboard 1 copy 3</title>
<g class="st0">
	<path class="st1" d="M761.8,229.7l-6.8-23.6h-35.2l-6.9,23.6h-27.9L721.3,122h33.5l36.2,107.6H761.8z M737.2,144.8l-12,41.5h24.5
		l-11.9-41.5H737.2z"/>
	<path class="st1" d="M828.6,229.7h-27.4V122h27.4V229.7z"/>
</g>
<path class="st2" d="M230.6,245.3v-9.6h345.6v8.9L230.6,245.3L230.6,245.3z"/>
<path class="st3" d="M31.4,246v-10.3h199.2v9.6L31.4,246z"/>
<radialGradient id="SVGID_1_" cx="875.39" cy="-554.67" r="255.35" gradientTransform="matrix(1 0 0 -1 0 -372.1)" gradientUnits="userSpaceOnUse">
	<stop  offset="0" style="stop-color:#FEE7DC"/>
	<stop  offset="4.000000e-02" style="stop-color:#F9D5C5"/>
	<stop  offset="0.2" style="stop-color:#EEA187"/>
	<stop  offset="0.34" style="stop-color:#E67A5E"/>
	<stop  offset="0.48" style="stop-color:#E05B41"/>
	<stop  offset="0.6" style="stop-color:#DC412F"/>
	<stop  offset="0.71" style="stop-color:#D92F26"/>
	<stop  offset="0.79" style="stop-color:#D82723"/>
	<stop  offset="1" style="stop-color:#D71920"/>
</radialGradient>
<path class="st4" d="M863.8,46.5H803l0.7,1.4L792,67.7H652l-10.2-21.9h-19.1v266.4h245.9c21.2-21.2,56.7-64.9,56.7-135.9
	C925.9,108,888.4,67,863.8,46.5z M790.7,65l10.9-19.8l-23.9-32.8H663.6l-19.8,30.7l9.6,21.2h137.3V65z"/>
<polygon class="st5" points="258.6,74.5 292.7,74.5 292.7,195.4 330.3,195.4 330.3,224.8 258.6,224.8 "/>
<path class="st5" d="M421.1,224.8h-31.4v-13.7c-6.1,10.3-12.3,16.4-24.6,16.4c-15,0-23.2-11.6-23.2-25.9v-97H374v82
	c0,4.8,0,11.6,7.5,11.6s7.5-8.2,7.5-11.6v-82h32.1L421.1,224.8z"/>
<path class="st5" d="M514.7,224.8h-30v-8.9c-4.8,7.5-13.7,11.6-23.2,11.6c-23.9,0-26-17.8-26-36.9c0-21.9,12.3-30.1,24.6-35.5
	s23.9-7.5,23.9-20.5c0-6.1-1.4-10.3-7.5-10.3s-8.2,2.7-8.2,8.2v10.2h-30.1v-11.6c0-17.8,16.4-29.4,38.3-29.4
	c29.4,0,38.9,11.6,38.9,37.6L514.7,224.8z M483.3,164l-8.9,6.8c-4.1,3.4-6.1,6.1-6.1,10.9v16.4c0,6.8,2.7,10.3,6.8,10.3
	c5.5,0,7.5-4.8,7.5-10.9L483.3,164z"/>
<path class="st5" d="M532.5,129.2H525V106h7.5V80h32.1v26h7.5v23.2h-7.5v64.2c0,2.7,0,8.9,4.8,8.9h4.1v24.6h-15
	c-13.7,0-25.3-2.7-25.3-21.2v-76.6H532.5z"/>
<path d="M42.5,305.6v-29.8H31.4v-4h26.7v4H47v29.8H42.5z"/>
<path d="M66.4,305.6v-24.4h3.7v3.7c0.6-1.3,1.5-2.5,2.6-3.4c0.8-0.5,1.7-0.8,2.7-0.8c1.5,0,3,0.5,4.3,1.3l-1.4,3.8
	c-0.9-0.6-1.9-0.9-3-0.9c-0.9,0-1.7,0.3-2.4,0.8c-0.8,0.6-1.3,1.3-1.6,2.2c-0.5,1.6-0.7,3.2-0.7,4.8v12.8L66.4,305.6z"/>
<path d="M110.1,285.4v-4.8h4.4v3.8c0.1,1.5-0.2,3-0.9,4.4c-1,1.6-2.4,2.8-4.1,3.6v0.7c0,5.7-1.8,9.6-5.5,11.6
	c-1.8,1-3.9,1.5-5.9,1.5c-3.1,0.1-6.1-1.1-8.3-3.3c-2.1-2.3-3.2-5.4-3.2-9.5c0-4.5,1.3-7.9,3.8-10c2.1-1.8,4.9-2.8,7.7-2.7
	c3.1-0.1,6.1,1.1,8.2,3.3c1.7,1.8,2.7,4.1,3,6.5c0.9-0.5,1.6-1.2,2.2-2c0.5-0.9,0.7-2,0.7-3L110.1,285.4z M90.9,293.4
	c0,3,0.7,5.4,2,7c2.5,2.8,6.8,3.1,9.6,0.7c0.2-0.2,0.5-0.4,0.7-0.7c1.4-1.7,2-4.1,2-7.1c0.1-2.5-0.6-4.9-2.1-6.9
	c-2.5-2.8-6.7-3.1-9.6-0.7c-0.2,0.2-0.5,0.4-0.7,0.7C91.6,288.1,90.9,290.4,90.9,293.4z M95.6,313.1v-4.7h4.7v4.7L95.6,313.1z"/>
<path d="M144.2,305.6v-33.7h4.1v33.7H144.2z"/>
<path d="M160.6,315l-0.5-3.9c0.8,0.2,1.6,0.4,2.4,0.4c0.8,0,1.5-0.1,2.2-0.5c0.6-0.3,1-0.7,1.4-1.3c0.5-1,0.9-2,1.3-3.1
	c0.1-0.2,0.2-0.6,0.4-1l-9.3-24.5h4.5l5.1,14.1c0.7,1.8,1.3,3.7,1.8,5.7c0.5-1.9,1-3.7,1.7-5.6l5.2-14.2h4.1l-9.3,24.8
	c-0.7,1.9-1.4,3.8-2.3,5.5c-0.6,1.2-1.5,2.2-2.5,3c-1,0.7-2.2,1-3.4,1C162.4,315.6,161.4,315.4,160.6,315z M167.3,278.2l3.1-6.4h5.4
	l-5.1,6.4H167.3z"/>
<path d="M209.8,305.6v-33.7h4.5v29.8h16.6v4L209.8,305.6z"/>
<path d="M257.7,305.6v-3.6c-1.7,2.6-4.6,4.2-7.7,4.1c-1.4,0-2.7-0.3-4-0.8c-1.1-0.4-2.1-1.1-2.8-2.1c-0.6-0.9-1.1-2-1.3-3.1
	c-0.2-1.3-0.3-2.6-0.3-3.9v-15.1h4.1v13.5c0,1.5,0,2.9,0.3,4.4c0.2,1,0.8,1.9,1.7,2.6c0.9,0.6,2,1,3.1,0.9c1.2,0,2.4-0.4,3.5-1
	c1-0.6,1.9-1.5,2.3-2.6c0.5-1.5,0.8-3.2,0.7-4.8v-13h4.1v24.4L257.7,305.6z"/>
<path d="M289.9,302.6c-1.3,1.2-2.8,2.1-4.4,2.8c-1.5,0.5-3,0.8-4.6,0.8c-2.2,0.1-4.5-0.6-6.2-2c-1.4-1.3-2.2-3.1-2.2-5
	c0-2.3,1.1-4.4,3-5.7c0.9-0.6,1.9-1.1,3-1.4c1.2-0.3,2.4-0.5,3.7-0.6c2.5-0.2,5-0.7,7.4-1.4c0-0.6,0-0.9,0-1.1
	c0.1-1.3-0.3-2.6-1.2-3.6c-1.3-1-3-1.5-4.7-1.4c-1.5-0.1-3,0.2-4.3,1c-1.1,0.9-1.8,2.2-2.1,3.6l-4-0.5c0.3-1.5,0.9-3,1.8-4.2
	c1-1.2,2.2-2,3.7-2.5c1.8-0.6,3.7-0.9,5.5-0.9c1.7-0.1,3.4,0.2,5.1,0.7c1.1,0.4,2.1,1,2.9,1.9c0.7,0.8,1.1,1.8,1.3,2.8
	c0.2,1.3,0.2,2.5,0.2,3.8v5.5c-0.1,2.4,0,4.9,0.3,7.3c0.2,1,0.5,2,1,2.9h-4.3C290.3,304.7,290,303.7,289.9,302.6z M283.9,274.3
	l-2.6,3.9h-4.7l5-6.4h4.4l5.2,6.4h-4.7L283.9,274.3z M289.6,293.4c-2.2,0.8-4.5,1.3-6.8,1.6c-1.2,0.1-2.4,0.4-3.6,0.8
	c-0.7,0.3-1.2,0.7-1.6,1.4c-1,1.5-0.7,3.5,0.7,4.7c1,0.8,2.3,1.2,3.6,1.2c1.5,0,3-0.3,4.3-1c1.2-0.6,2.1-1.6,2.7-2.9
	c0.5-1.3,0.7-2.7,0.7-4.1L289.6,293.4z M281.4,313.1v-4.7h4.7v4.7H281.4z"/>
<path d="M315.2,301.9l0.6,3.7c-1,0.2-2.1,0.3-3.1,0.4c-1.2,0.1-2.4-0.2-3.5-0.7c-0.8-0.4-1.4-1.1-1.8-1.9c-0.4-1.6-0.6-3.2-0.5-4.9
	v-14.1h-3v-3.2h3v-6.1l4.1-2.5v8.5h4.2v3.2h-4.2v14.3c-0.1,0.8,0,1.5,0.2,2.3c0.1,0.3,0.4,0.6,0.7,0.8c0.4,0.2,0.9,0.3,1.4,0.3
	C314,302.1,314.6,302,315.2,301.9z"/>
<path d="M354.6,305.6l-13.1-33.7h4.8l8.8,24.5c0.7,2,1.3,3.8,1.8,5.5c0.5-1.8,1.1-3.7,1.8-5.5l9.1-24.5h4.5l-13.2,33.7H354.6z"/>
<path d="M381.1,276.7v-4.8h4.1v4.8H381.1z M381.1,305.7v-24.5h4.1v24.4L381.1,305.7z"/>
<path d="M414.3,297.8l4.3,0.5c-0.5,2.3-1.9,4.4-3.8,5.8c-4.8,3.2-11.2,2.7-15.5-1.2c-2.1-2.2-3.1-5.3-3.1-9.3c0-4.1,1.1-7.3,3.2-9.6
	c2.1-2.3,5.1-3.5,8.2-3.4c3-0.1,5.9,1.1,8,3.3c2.1,2.2,3.1,5.4,3.1,9.4c0,0.2,0,0.6,0,1.1h-18.2c0,2.3,0.8,4.5,2.3,6.2
	c1.3,1.4,3.2,2.2,5.1,2.1c1.4,0,2.8-0.4,3.9-1.2C412.9,300.6,413.8,299.3,414.3,297.8z M407.5,274.3l-2.6,3.9h-4.7l5-6.4h4.4
	l5.2,6.4H410L407.5,274.3z M400.7,291.1h13.6c0-1.7-0.6-3.3-1.6-4.6c-1.2-1.6-3.1-2.4-5.1-2.4c-1.8,0-3.5,0.6-4.8,1.9
	C401.5,287.3,400.7,289.2,400.7,291.1z M405.4,313.1v-4.7h4.7v4.7H405.4z"/>
<path d="M438.8,301.9l0.6,3.7c-1,0.2-2.1,0.3-3.1,0.4c-1.2,0.1-2.4-0.2-3.5-0.7c-0.8-0.4-1.4-1.1-1.8-1.9c-0.4-1.6-0.6-3.2-0.5-4.9
	v-14.1h-3v-3.2h3v-6.1l4.1-2.5v8.5h4.2v3.2h-4.2v14.3c0,0.8,0,1.5,0.2,2.3c0.1,0.3,0.4,0.6,0.7,0.8c0.4,0.2,0.9,0.3,1.4,0.3
	C437.6,302.1,438.2,302,438.8,301.9z"/>
<path d="M468.5,305.6v-33.7h4.6l17.7,26.5v-26.5h4.3v33.7h-4.6l-17.7-26.5v26.5H468.5z"/>
<path d="M524,302.6c-1.3,1.2-2.8,2.1-4.4,2.8c-1.5,0.5-3,0.8-4.6,0.8c-2.2,0.1-4.5-0.6-6.2-2c-1.4-1.3-2.2-3.1-2.2-5
	c0-1.1,0.3-2.3,0.8-3.3c0.5-1,1.2-1.8,2.1-2.4c0.9-0.6,1.9-1.1,3-1.4c1.2-0.3,2.4-0.5,3.7-0.6c2.5-0.2,5-0.7,7.4-1.4
	c0-0.6,0-0.9,0-1.1c0.1-1.3-0.3-2.6-1.2-3.6c-1.3-1-3-1.5-4.7-1.4c-1.5-0.1-3,0.2-4.3,1c-1.1,0.9-1.8,2.2-2.1,3.6l-4-0.5
	c0.3-1.5,0.9-3,1.8-4.2c1-1.1,2.2-2,3.7-2.5c1.8-0.6,3.7-0.9,5.5-0.9c1.7-0.1,3.4,0.2,5.1,0.7c2.2,0.6,3.8,2.4,4.2,4.7
	c0.2,1.3,0.2,2.5,0.2,3.8v5.5c-0.1,2.4,0,4.9,0.3,7.3c0.2,1,0.5,2,1,2.9h-4.3C524.4,304.7,524.1,303.7,524,302.6z M523.7,293.4
	c-2.2,0.8-4.5,1.3-6.8,1.6c-1.2,0.1-2.4,0.4-3.6,0.8c-0.7,0.3-1.2,0.7-1.6,1.4c-1,1.5-0.7,3.5,0.7,4.7c1,0.8,2.3,1.2,3.7,1.2
	c1.5,0,2.9-0.3,4.3-1c1.2-0.7,2.2-1.7,2.8-3c0.5-1.3,0.7-2.7,0.7-4.1L523.7,293.4z"/>
<path d="M540.3,305.6v-24.4h3.7v3.4c1.6-2.5,4.4-4,7.4-4c1.6-0.1,3.1,0.3,4.5,1.1c1.1,0.7,2,1.9,2.5,3.1c1.6-2.7,4.5-4.3,7.5-4.3
	c2.1-0.1,4.1,0.6,5.6,2c1.3,1.3,2,3.4,2,6.2v16.8h-4.1v-15.4c0.1-1.2-0.1-2.4-0.4-3.6c-0.3-0.7-0.8-1.4-1.5-1.8
	c-0.7-0.5-1.6-0.7-2.5-0.7c-1.6,0-3.2,0.6-4.3,1.7c-1.1,1.1-1.7,3-1.7,5.5v14.2h-4.1v-15.9c0.1-1.5-0.2-2.9-1-4.1
	c-0.8-1-2.1-1.5-3.3-1.4c-1.1,0-2.3,0.3-3.2,0.9c-1,0.6-1.8,1.6-2.2,2.7c-0.5,1.7-0.7,3.4-0.7,5.1v12.7H540.3z"/>
<path class="st3" d="M31.7,225.2l55-151h41.7l55,151h-43.9L99,98.4h16.5L74.9,225.2H31.7z M64.4,198.9l10.8-36.7h57.9l10.8,36.7
	H64.4z"/>
<path class="st3" d="M190.3,225.2v-151h42.4v151H190.3z"/>
<g class="st0">
	<path class="st1" d="M757.8,228.7l-6.8-23.6h-35.2l-6.9,23.6h-27.9L717.3,121h33.5l36.2,107.6H757.8z M733.2,143.8l-12,41.5h24.5
		l-11.9-41.5H733.2z"/>
	<path class="st1" d="M824.6,228.7h-27.4V121h27.4V228.7z"/>
</g>
</svg>
